<svg width="45" height="45" viewBox="0 0 45 45" fill="none" xmlns="http://www.w3.org/2000/svg">
<path d="M31.0613 41.2481H31.1138C32.1038 41.2481 33.0394 40.8581 33.7481 40.1494L38.8331 35.0644C39.0074 34.8904 39.1457 34.6838 39.24 34.4563C39.3343 34.2288 39.3829 33.985 39.3829 33.7387C39.3829 33.4925 39.3343 33.2487 39.24 33.0212C39.1457 32.7937 39.0074 32.5871 38.8331 32.4131L31.3331 24.9131C31.1592 24.7389 30.9525 24.6006 30.7251 24.5063C30.4976 24.4119 30.2538 24.3634 30.0075 24.3634C29.7613 24.3634 29.5174 24.4119 29.29 24.5063C29.0625 24.6006 28.8559 24.7389 28.6819 24.9131L25.6931 27.9019C24.3075 27.4894 21.7219 26.5519 20.0831 24.9131C18.4444 23.2744 17.5069 20.6888 17.0944 19.3031L20.0831 16.3144C20.2574 16.1404 20.3957 15.9338 20.49 15.7063C20.5843 15.4788 20.6329 15.235 20.6329 14.9887C20.6329 14.7425 20.5843 14.4987 20.49 14.2712C20.3957 14.0437 20.2574 13.8371 20.0831 13.6631L12.5831 6.16312C12.2247 5.82479 11.7504 5.63631 11.2575 5.63631C10.7646 5.63631 10.2903 5.82479 9.93188 6.16312L4.84876 11.2481C4.13626 11.9606 3.73501 12.9394 3.75001 13.9388C3.79313 16.6088 4.50001 25.8825 11.8088 33.1912C19.1175 40.5 28.3913 41.205 31.0613 41.2481V41.2481ZM11.2594 10.14L16.1081 14.9887L13.6838 17.4131C13.4631 17.6331 13.3011 17.9049 13.2123 18.2035C13.1236 18.5022 13.111 18.8183 13.1756 19.1231C13.2206 19.3388 14.3213 24.4519 17.4338 27.5644C20.5463 30.6769 25.6594 31.7775 25.875 31.8225C26.1798 31.8875 26.496 31.8751 26.7948 31.7863C27.0935 31.6975 27.3652 31.5353 27.585 31.3144L30.0094 28.89L34.8581 33.7387L31.0969 37.4981C28.7569 37.4588 20.7506 36.8306 14.46 30.5381C8.14876 24.2269 7.53751 16.1925 7.50001 13.8994L11.2594 10.14ZM37.4981 20.6231H41.2481C41.2481 11.0044 33.9863 3.75 24.3544 3.75V7.5C31.9706 7.5 37.4981 13.0181 37.4981 20.6231V20.6231Z" fill="#5EDB79"/>
<path d="M24.3731 15C28.3163 15 29.9981 16.6819 29.9981 20.625H33.7481C33.7481 14.5781 30.42 11.25 24.3731 11.25V15V15Z" fill="#5EDB79"/>
</svg>
