<svg width="51" height="51" viewBox="0 0 51 51" fill="none" xmlns="http://www.w3.org/2000/svg">
<path d="M30.873 11.6009C32.9773 12.0106 34.9111 13.0378 36.4271 14.5508C37.943 16.0639 38.9721 17.994 39.3827 20.0942L30.873 11.6009ZM30.873 3C35.2448 3.48474 39.3215 5.43872 42.4337 8.54113C45.546 11.6435 47.5088 15.71 48 20.0727L30.873 3ZM45.8457 37.2315V43.6821C45.8481 44.2809 45.7252 44.8737 45.4848 45.4224C45.2445 45.9711 44.8919 46.4636 44.4498 46.8684C44.0077 47.2733 43.4858 47.5815 42.9174 47.7733C42.349 47.9652 41.7468 48.0364 41.1492 47.9825C34.52 47.2636 28.1521 45.0027 22.5573 41.3814C17.3521 38.0801 12.9389 33.6754 9.6313 28.4801C5.99042 22.8706 3.72463 16.484 3.01749 9.83769C2.96365 9.24308 3.03445 8.64381 3.22538 8.07801C3.41631 7.51221 3.72318 6.99229 4.12646 6.55134C4.52975 6.1104 5.0206 5.7581 5.56777 5.51688C6.11494 5.27565 6.70644 5.15078 7.30461 5.15022H13.7676C14.8131 5.13995 15.8267 5.50947 16.6194 6.18992C17.4122 6.87036 17.93 7.8153 18.0763 8.84859C18.3491 10.9129 18.855 12.9399 19.5843 14.8907C19.8742 15.6603 19.9369 16.4967 19.7651 17.3008C19.5933 18.1049 19.1941 18.843 18.6149 19.4277L15.8789 22.1584C18.9457 27.5416 23.4114 31.9988 28.8049 35.0597L31.5409 32.329C32.1266 31.7508 32.8661 31.3524 33.6718 31.1809C34.4774 31.0095 35.3154 31.0721 36.0865 31.3614C38.0411 32.0893 40.0719 32.5943 42.1402 32.8665C43.1867 33.0139 44.1425 33.54 44.8257 34.3448C45.5089 35.1496 45.8719 36.1769 45.8457 37.2315Z" stroke="#56CCF2" stroke-width="5.83333" stroke-linecap="round" stroke-linejoin="round"/>
</svg>
