<svg width="45" height="45" viewBox="0 0 45 45" fill="none" xmlns="http://www.w3.org/2000/svg">
<path d="M22.5 42.1875L13.815 37.5567C11.3391 36.2395 9.26856 34.2729 7.82568 31.868C6.3828 29.4632 5.62203 26.7108 5.62501 23.9062V5.625C5.62575 4.87931 5.92231 4.16437 6.44959 3.63708C6.97688 3.1098 7.69182 2.81324 8.43751 2.8125H36.5625C37.3082 2.81324 38.0231 3.1098 38.5504 3.63708C39.0777 4.16437 39.3743 4.87931 39.375 5.625V23.9062C39.378 26.7108 38.6172 29.4632 37.1743 31.868C35.7315 34.2729 33.6609 36.2395 31.185 37.5567L22.5 42.1875ZM8.43751 5.625V23.9062C8.43518 26.201 9.05781 28.453 10.2386 30.4206C11.4194 32.3883 13.1137 33.9972 15.1397 35.0747L22.5 38.9995L29.8603 35.0761C31.8865 33.9985 33.581 32.3893 34.7618 30.4214C35.9426 28.4535 36.5651 26.2012 36.5625 23.9062V5.625H8.43751Z" fill="#5EDB79"/>
<path d="M22.5 35.5458V8.4375H33.75V23.632C33.7499 25.4145 33.2659 27.1635 32.3495 28.6923C31.4331 30.2212 30.1188 31.4725 28.5469 32.3128L22.5 35.5458Z" fill="#5EDB79"/>
</svg>
