<svg width="45" height="45" viewBox="0 0 45 45" fill="none" xmlns="http://www.w3.org/2000/svg">
<path d="M43.3929 0H1.60714C0.718192 0 0 0.914062 0 2.04545V42.9545C0 44.0859 0.718192 45 1.60714 45H43.3929C44.2818 45 45 44.0859 45 42.9545V2.04545C45 0.914062 44.2818 0 43.3929 0ZM3.61607 4.60227H41.3839V12.2727H3.61607V4.60227ZM41.3839 40.3977H3.61607V17.8977H41.3839V40.3977ZM29.481 36.3068H37.7679C37.9888 36.3068 38.1696 36.0767 38.1696 35.7955V31.1932C38.1696 30.9119 37.9888 30.6818 37.7679 30.6818H29.481C29.26 30.6818 29.0792 30.9119 29.0792 31.1932V35.7955C29.0792 36.0767 29.26 36.3068 29.481 36.3068Z" fill="#5EDB79"/>
</svg>
