<svg width="45" height="45" viewBox="0 0 45 45" fill="none" xmlns="http://www.w3.org/2000/svg">
<path d="M40.9275 0H4.5C2.025 0 0.0225 2.53125 0.0225 5.625V16.875C2.4975 16.875 4.5 19.4062 4.5 22.5C4.5 25.5938 2.4975 28.125 0 28.125V39.375C0 42.4688 2.025 45 4.5 45H40.5C42.975 45 45 42.4688 45 39.375V5.625C45 2.53125 43.1775 0 40.9275 0ZM35.3925 26.1562L16.29 32.5125C16.0523 32.5922 15.8002 32.5721 15.5726 32.4552C15.3449 32.3383 15.1543 32.1312 15.03 31.8656L12.51 26.3813C12.105 25.5375 12.4875 24.4406 13.23 24.1875C13.59 24.075 13.995 24.1594 14.2875 24.4688L16.65 26.775L22.0275 24.975L17.775 15.75C17.6411 15.4577 17.5623 15.1311 17.5445 14.7949C17.5267 14.4588 17.5704 14.1221 17.6724 13.8103C17.7743 13.4985 17.9318 13.2198 18.1328 12.9955C18.3338 12.7711 18.5731 12.607 18.8325 12.5156C19.1218 12.4204 19.4256 12.4168 19.7163 12.5052C20.007 12.5936 20.2755 12.7712 20.4975 13.0219L28.8 22.6969L34.29 20.8687C34.8449 20.6854 35.4352 20.7834 35.9325 21.1417C36.4298 21.4999 36.7937 22.0892 36.945 22.7813C37.0879 23.4857 37.0058 24.232 36.716 24.8621C36.4262 25.4921 35.9515 25.9563 35.3925 26.1562Z" fill="#5EDB79"/>
</svg>
