<svg width="45" height="45" viewBox="0 0 45 45" fill="none" xmlns="http://www.w3.org/2000/svg">
<path d="M29.25 29.565L31.8825 16.2C33.66 15.2325 34.875 13.3875 34.875 11.25C34.875 9.75816 34.2824 8.32742 33.2275 7.27252C32.1726 6.21763 30.7418 5.625 29.25 5.625C27.7582 5.625 26.3274 6.21763 25.2725 7.27252C24.2176 8.32742 23.625 9.75816 23.625 11.25C23.625 13.3875 24.84 15.2325 26.6175 16.2L29.25 29.565ZM29.25 7.875C31.1175 7.875 32.625 9.3825 32.625 11.25C32.625 13.1175 31.1175 14.625 29.25 14.625C27.3825 14.625 25.875 13.1175 25.875 11.25C25.875 9.3825 27.3825 7.875 29.25 7.875ZM33.12 18.675L40.5 15.6825V35.9325L29.52 40.5L15.75 35.9325L4.5 40.4325V20.1825L15.75 15.6825L25.3575 18.855L29.25 35.28L33.12 18.675Z" fill="#5EDB79"/>
</svg>
