<svg width="45" height="45" viewBox="0 0 45 45" fill="none" xmlns="http://www.w3.org/2000/svg">
<path d="M14.8661 25.3125H10.8482C10.1853 25.3125 9.64286 24.8379 9.64286 24.2578L9.64286 20.7422C9.64286 20.1621 10.1853 19.6875 10.8482 19.6875H14.8661C15.529 19.6875 16.0714 20.1621 16.0714 20.7422V24.2578C16.0714 24.8379 15.529 25.3125 14.8661 25.3125ZM25.7143 24.2578V20.7422C25.7143 20.1621 25.1719 19.6875 24.5089 19.6875H20.4911C19.8281 19.6875 19.2857 20.1621 19.2857 20.7422V24.2578C19.2857 24.8379 19.8281 25.3125 20.4911 25.3125H24.5089C25.1719 25.3125 25.7143 24.8379 25.7143 24.2578ZM35.3571 24.2578V20.7422C35.3571 20.1621 34.8147 19.6875 34.1518 19.6875H30.1339C29.471 19.6875 28.9286 20.1621 28.9286 20.7422V24.2578C28.9286 24.8379 29.471 25.3125 30.1339 25.3125H34.1518C34.8147 25.3125 35.3571 24.8379 35.3571 24.2578ZM25.7143 32.6953V29.1797C25.7143 28.5996 25.1719 28.125 24.5089 28.125H20.4911C19.8281 28.125 19.2857 28.5996 19.2857 29.1797V32.6953C19.2857 33.2754 19.8281 33.75 20.4911 33.75H24.5089C25.1719 33.75 25.7143 33.2754 25.7143 32.6953ZM16.0714 32.6953V29.1797C16.0714 28.5996 15.529 28.125 14.8661 28.125H10.8482C10.1853 28.125 9.64286 28.5996 9.64286 29.1797V32.6953C9.64286 33.2754 10.1853 33.75 10.8482 33.75H14.8661C15.529 33.75 16.0714 33.2754 16.0714 32.6953ZM35.3571 32.6953L35.3571 29.1797C35.3571 28.5996 34.8147 28.125 34.1518 28.125H30.1339C29.471 28.125 28.9286 28.5996 28.9286 29.1797V32.6953C28.9286 33.2754 29.471 33.75 30.1339 33.75L34.1518 33.75C34.8147 33.75 35.3571 33.2754 35.3571 32.6953ZM45 9.84375L45 40.7813C45 43.1104 42.8404 45 40.1786 45L4.82143 45C2.1596 45 0 43.1104 0 40.7812L0 9.84375C0 7.51465 2.1596 5.625 4.82143 5.625H9.64286V1.05469C9.64286 0.474609 10.1853 0 10.8482 0L14.8661 0C15.529 0 16.0714 0.474609 16.0714 1.05469V5.625L28.9286 5.625V1.05469C28.9286 0.474609 29.471 0 30.1339 0L34.1518 0C34.8147 0 35.3571 0.474609 35.3571 1.05469V5.625L40.1786 5.625C42.8404 5.625 45 7.51465 45 9.84375ZM40.1786 40.2539L40.1786 14.0625L4.82143 14.0625L4.82143 40.2539C4.82143 40.5439 5.09263 40.7812 5.42411 40.7812L39.5759 40.7813C39.9074 40.7813 40.1786 40.5439 40.1786 40.2539Z" fill="#56CCF2"/>
</svg>
