<svg width="45" height="45" viewBox="0 0 45 45" fill="none" xmlns="http://www.w3.org/2000/svg">
<path d="M22.4442 45C23.6867 45 24.6939 43.7403 24.6939 42.1865C24.6939 40.6326 23.6867 39.373 22.4442 39.373C21.2017 39.373 20.1945 40.6326 20.1945 42.1865C20.1945 43.7403 21.2017 45 22.4442 45Z" fill="#5EDB79"/>
<path d="M22.4441 28.1189C19.5324 28.1188 16.7341 29.5307 14.6376 32.0578C14.208 32.5764 13.9607 33.2872 13.9502 34.0338C13.9396 34.7804 14.1667 35.5017 14.5814 36.0389C14.996 36.5762 15.5644 36.8854 16.1614 36.8986C16.7584 36.9118 17.3351 36.6279 17.7647 36.1093C19.0423 34.6462 20.7118 33.8347 22.4441 33.8347C24.1764 33.8347 25.8459 34.6462 27.1235 36.1093C27.5531 36.6279 28.1298 36.9118 28.7268 36.8986C29.3238 36.8854 29.8922 36.5762 30.3068 36.0389C30.7215 35.5017 30.9486 34.7804 30.938 34.0338C30.9275 33.2872 30.6802 32.5764 30.2506 32.0578C28.1542 29.5307 25.3558 28.1188 22.4441 28.1189V28.1189ZM22.4441 14.0513C19.7269 14.0535 17.0379 14.7397 14.5372 16.069C12.0366 17.3982 9.7754 19.3434 7.88847 21.7885C7.68315 22.06 7.5226 22.3795 7.416 22.7287C7.3094 23.0778 7.25883 23.4498 7.26719 23.8234C7.27554 24.1971 7.34266 24.5649 7.4647 24.9061C7.58674 25.2473 7.76132 25.555 7.97846 25.8118C8.41701 26.3304 9.00232 26.6099 9.60564 26.5888C9.90438 26.5783 10.1985 26.4944 10.4713 26.3418C10.7441 26.1892 10.9902 25.9708 11.1955 25.6993C12.6646 23.7932 14.4258 22.277 16.374 21.2415C18.3221 20.2059 20.4173 19.6722 22.5341 19.6722C24.6509 19.6722 26.746 20.2059 28.6942 21.2415C30.6424 22.277 32.4036 23.7932 33.8726 25.6993C34.081 25.9651 34.3295 26.1766 34.6036 26.3215C34.8778 26.4664 35.1723 26.5418 35.4699 26.5433C35.9096 26.5412 36.3391 26.3781 36.7054 26.074C37.0717 25.77 37.3588 25.3384 37.5311 24.8326C37.7034 24.3267 37.7534 23.7689 37.675 23.2278C37.5966 22.6868 37.3931 22.1864 37.0897 21.7885C35.1923 19.3297 32.9165 17.3766 30.3996 16.0469C27.8826 14.7172 25.1764 14.0384 22.4441 14.0513Z" fill="#5EDB79"/>
<path d="M44.3113 11.0408C38.4405 3.958 30.6014 0 22.4441 0C14.2869 0 6.44774 3.958 0.576952 11.0408C0.197286 11.5688 -0.00871161 12.2568 0.000282584 12.9668C0.00927678 13.6767 0.232597 14.3562 0.625447 14.8689C1.0183 15.3815 1.55162 15.6895 2.11843 15.7309C2.68524 15.7724 3.24362 15.5442 3.68155 15.0923C8.71551 9.00699 15.4429 5.60544 22.4441 5.60544C29.4454 5.60544 36.1728 9.00699 41.2067 15.0923C41.6238 15.595 42.1798 15.8772 42.759 15.8801C43.0621 15.8786 43.3618 15.8006 43.6401 15.6508C43.9185 15.5009 44.1697 15.2822 44.3788 15.0079C44.789 14.4697 45.0121 13.7503 44.9995 13.0069C44.9868 12.2636 44.7394 11.5567 44.3113 11.0408V11.0408Z" fill="#5EDB79"/>
</svg>
