<svg width="45" height="45" viewBox="0 0 45 45" fill="none" xmlns="http://www.w3.org/2000/svg">
<path d="M7.5 29.0625C7.5 32.6812 10.4438 35.625 14.0625 35.625L11.25 38.4375V39.375H33.75V38.4375L30.9375 35.625C34.5562 35.625 37.5 32.6812 37.5 29.0625V9.375C37.5 2.8125 30.7875 1.875 22.5 1.875C14.2125 1.875 7.5 2.8125 7.5 9.375V29.0625ZM22.5 31.875C20.4375 31.875 18.75 30.1875 18.75 28.125C18.75 26.0625 20.4375 24.375 22.5 24.375C24.5625 24.375 26.25 26.0625 26.25 28.125C26.25 30.1875 24.5625 31.875 22.5 31.875ZM33.75 18.75H11.25V9.375H33.75V18.75Z" fill="#5EDB79"/>
</svg>
