<svg width="45" height="45" viewBox="0 0 45 45" fill="none" xmlns="http://www.w3.org/2000/svg">
<path d="M37.8563 7.49998H7.5C5.4375 7.49998 3.76875 9.18748 3.76875 11.25V18.75C5.83125 18.75 7.5 20.4375 7.5 22.5C7.5 24.5625 5.83125 26.25 3.75 26.25V33.75C3.75 35.8125 5.4375 37.5 7.5 37.5H37.5C39.5625 37.5 41.25 35.8125 41.25 33.75V11.25C41.25 9.18748 39.7313 7.49998 37.8563 7.49998ZM37.5 33.75H7.5V28.9875C9.73125 27.6937 11.25 25.2562 11.25 22.5C11.25 19.725 9.75 17.3062 7.51875 16.0125L7.5 11.25H37.5V33.75ZM16.6313 29.3625L13.5188 23.9625L15.2625 23.4937L17.625 25.35L22.1063 24.15L17.6063 16.35L20.2313 15.6375L27.75 22.65L32.325 21.4312C32.7874 21.309 33.2794 21.3744 33.6938 21.6132C34.1082 21.852 34.4114 22.2449 34.5375 22.7062C34.6541 23.1734 34.5842 23.6675 34.3427 24.084C34.1012 24.5005 33.7071 24.8066 33.2438 24.9375L16.6313 29.3625Z" fill="#5EDB79"/>
</svg>
