<svg width="38" height="43" viewBox="0 0 38 43" fill="none" xmlns="http://www.w3.org/2000/svg">
<path fill-rule="evenodd" clip-rule="evenodd" d="M30.78 10.6174H26.3965V7.82471H29.9753C30.8912 7.82471 31.6297 6.90882 31.6297 5.78382V2.04088C31.6297 0.910588 30.8912 0 29.9753 0H20.205C19.2891 0 18.5532 0.913235 18.5532 2.04088V5.78382C18.5532 6.91147 19.2891 7.82471 20.205 7.82471H23.8526V10.6174H6.19412C5.21471 10.6174 4.42059 11.4115 4.42059 12.3856L0 35.2323V42.3503H37.0535V35.2323L32.5562 12.3856C32.5548 11.9157 32.3669 11.4655 32.0339 11.134C31.7009 10.8025 31.2499 10.6166 30.78 10.6174ZM10.5962 31.8044H7.86706V29.0329H10.5962V31.8044ZM7.86441 26.5103V23.7388H10.5935V26.5103H7.86441ZM15.8903 31.8441H13.1612V29.0329H15.8903V31.8441ZM15.8903 26.4679H13.1188V23.7785H15.8903V26.4679ZM21.1844 31.8388H18.4129V29.0303H21.1844V31.8388ZM18.4129 26.4679V23.7388H21.1844V26.4679H18.4129ZM21.1844 21.1738H7.86706V15.8797H21.1844V21.1738ZM29.0832 21.1738H23.7415V18.4738H29.0832V21.1738Z" fill="#5EDB79"/>
</svg>
