<svg width="45" height="45" viewBox="0 0 45 45" fill="none" xmlns="http://www.w3.org/2000/svg">
<path d="M2.5 0H42.5C43.163 0 43.7989 0.263392 44.2678 0.732233C44.7366 1.20107 45 1.83696 45 2.5V42.5C45 43.163 44.7366 43.7989 44.2678 44.2678C43.7989 44.7366 43.163 45 42.5 45H2.5C1.83696 45 1.20107 44.7366 0.732233 44.2678C0.263392 43.7989 0 43.163 0 42.5V2.5C0 1.83696 0.263392 1.20107 0.732233 0.732233C1.20107 0.263392 1.83696 0 2.5 0ZM5 5V40H40V5H5ZM15 10H23.75C26.0706 10 28.2962 10.9219 29.9372 12.5628C31.5781 14.2038 32.5 16.4294 32.5 18.75C32.5 21.0706 31.5781 23.2962 29.9372 24.9372C28.2962 26.5781 26.0706 27.5 23.75 27.5H20V35H15V10ZM20 15V22.5H23.75C24.7446 22.5 25.6984 22.1049 26.4017 21.4017C27.1049 20.6984 27.5 19.7446 27.5 18.75C27.5 17.7554 27.1049 16.8016 26.4017 16.0983C25.6984 15.3951 24.7446 15 23.75 15H20Z" fill="#5EDB79"/>
</svg>
