<svg width="45" height="45" viewBox="0 0 45 45" fill="none" xmlns="http://www.w3.org/2000/svg">
<path d="M44.7859 17.7793C44.9988 17.2457 45.0545 16.6585 44.9459 16.0921C44.8372 15.5256 44.5692 15.0054 44.1756 14.5971L30.1133 0L26.1365 4.12806L35.3979 13.7417H0.000325833V19.5806H42.1872C42.7434 19.5807 43.2872 19.4097 43.7497 19.089C44.2123 18.7684 44.5729 18.3126 44.7859 17.7793V17.7793ZM0.214073 27.2207C0.00115666 27.7543 -0.0545053 28.3415 0.0541315 28.9079C0.162768 29.4743 0.430822 29.9946 0.824377 30.4029L14.8867 45L18.8635 40.8719L9.60206 31.2583H44.9997V25.4194H2.81278C2.25649 25.4189 1.71257 25.5898 1.24994 25.9105C0.787305 26.2311 0.426789 26.6871 0.214073 27.2207V27.2207Z" fill="#5EDB79"/>
</svg>
