<svg width="45" height="45" viewBox="0 0 45 45" fill="none" xmlns="http://www.w3.org/2000/svg">
<path d="M32.7123 1.84326C31.6666 0.5998 30.5611 -0.0241762 29.4481 0.000716428C25.8486 0.000716428 23.3065 5.91742 23.2885 14.4108C23.266 20.6505 25.095 24.1667 26.4785 26.2515C27.8981 28.395 28.3727 29.7458 28.3682 31.6617C28.3592 34.576 27.2344 35.8974 26.1883 35.8974C24.7508 35.8974 23.9657 35.244 22.7576 33.607L22.3099 32.9243L21.7992 42.7023C22.6743 43.8915 24.2514 44.9119 25.8801 45C29.7068 45 32.2084 39.12 32.2377 30.0834C32.2692 25.099 31.2793 21.3332 29.1961 18.2207C27.9296 16.2019 27.1444 14.8512 27.1444 12.8031C27.1444 10.9899 27.8171 9.05196 29.2231 9.05196C30.1589 8.97808 31.0889 9.55097 31.952 10.733L32.2894 11.2248L32.8001 1.77719L32.7123 1.84326ZM42.0529 0.793525H39.2409C38.3657 0.793525 37.7066 1.57899 37.3242 4.41255L31.916 44.3907H35.7426L36.5075 37.8354L41.1778 37.85C41.2881 39.3843 41.6255 44.3907 41.6255 44.3907H45L42.0529 0.793525ZM18.112 0.426482H21.7587L19.4776 44.0457H15.8354L18.112 0.411801V0.426482ZM8.85467 24.4677L9.23262 30.5239L12.7961 0.793525H16.6588L10.9199 44.332H7.06619L3.91666 7.46634C3.86565 6.85845 3.74586 6.33638 3.58146 6.00551C2.44629 4.09203 1.24349 2.63995 0 1.68176L0.0494925 0.764156H5.91886C6.71524 0.866928 7.3564 1.68176 7.57011 4.4566L8.85242 24.4897V24.4677H8.85467ZM37.5536 28.9162L39.0069 16.7158C38.9889 16.8479 39.3061 14.1979 39.4906 12.5609L39.7403 16.3267L40.5839 28.9089H37.5514V28.9162H37.5536Z" fill="#5EDB79"/>
</svg>
