<svg width="45" height="45" viewBox="0 0 45 45" fill="none" xmlns="http://www.w3.org/2000/svg">
<path d="M22.4441 45C23.6866 45 24.6939 43.7403 24.6939 42.1864C24.6939 40.6326 23.6866 39.3729 22.4441 39.3729C21.2017 39.3729 20.1944 40.6326 20.1944 42.1864C20.1944 43.7403 21.2017 45 22.4441 45Z" fill="#5EDB79"/>
<path d="M22.4441 28.1189C19.5324 28.1188 16.7341 29.5308 14.6377 32.0578C14.2081 32.5765 13.9608 33.2872 13.9502 34.0338C13.9397 34.7805 14.1667 35.5017 14.5814 36.039C14.9961 36.5762 15.5644 36.8855 16.1614 36.8987C16.7584 36.9119 17.3352 36.6279 17.7647 36.1093C19.0424 34.6463 20.7118 33.8348 22.4441 33.8348C24.1765 33.8348 25.8459 34.6463 27.1235 36.1093C27.5531 36.6279 28.1299 36.9119 28.7269 36.8987C29.3239 36.8855 29.8922 36.5762 30.3069 36.039C30.7216 35.5017 30.9486 34.7805 30.9381 34.0338C30.9275 33.2872 30.6802 32.5765 30.2506 32.0578C28.1542 29.5308 25.3559 28.1188 22.4441 28.1189ZM22.4441 14.0513C19.727 14.0536 17.0379 14.7397 14.5373 16.069C12.0366 17.3983 9.77545 19.3434 7.88852 21.7885C7.68319 22.0601 7.52264 22.3796 7.41604 22.7287C7.30944 23.0779 7.25888 23.4499 7.26723 23.8235C7.27559 24.1971 7.3427 24.565 7.46474 24.9061C7.58678 25.2473 7.76136 25.5551 7.97851 25.8118C8.41705 26.3304 9.00237 26.6099 9.60569 26.5888C9.90442 26.5784 10.1986 26.4944 10.4714 26.3418C10.7442 26.1892 10.9903 25.9709 11.1956 25.6993C12.6646 23.7932 14.4259 22.2771 16.374 21.2415C18.3222 20.206 20.4173 19.6722 22.5341 19.6722C24.651 19.6722 26.7461 20.206 28.6943 21.2415C30.6424 22.2771 32.4037 23.7932 33.8727 25.6993C34.081 25.9651 34.3295 26.1766 34.6037 26.3215C34.8779 26.4664 35.1723 26.5418 35.47 26.5434C35.9096 26.5413 36.3391 26.3781 36.7054 26.0741C37.0718 25.77 37.3588 25.3384 37.5311 24.8326C37.7034 24.3268 37.7535 23.7689 37.675 23.2279C37.5966 22.6869 37.3931 22.1865 37.0898 21.7885C35.1923 19.3297 32.9166 17.3767 30.3996 16.047C27.8826 14.7172 25.1765 14.0384 22.4441 14.0513Z" fill="#5EDB79"/>
<path d="M44.3113 11.0408C38.4405 3.958 30.6014 0 22.4441 0C14.2869 0 6.44774 3.958 0.576952 11.0408C0.197286 11.5688 -0.00871161 12.2568 0.000282584 12.9668C0.00927678 13.6767 0.232597 14.3562 0.625447 14.8689C1.0183 15.3815 1.55162 15.6895 2.11843 15.7309C2.68524 15.7724 3.24362 15.5442 3.68155 15.0923C8.71551 9.00699 15.4429 5.60544 22.4441 5.60544C29.4454 5.60544 36.1728 9.00699 41.2067 15.0923C41.6238 15.595 42.1798 15.8772 42.759 15.8801C43.0621 15.8786 43.3618 15.8006 43.6401 15.6508C43.9185 15.5009 44.1697 15.2822 44.3788 15.0079C44.789 14.4697 45.0121 13.7503 44.9995 13.0069C44.9868 12.2636 44.7394 11.5567 44.3113 11.0408Z" fill="#5EDB79"/>
</svg>
